<svg width="13" height="16" viewBox="0 0 13 16" version="1.1" xmlns="http://www.w3.org/2000/svg" xmlns:svg="http://www.w3.org/2000/svg" fill="black"><g transform="matrix(1.0284094,0,0,1.0559348,-0.12569325,-0.46713316)"><path d="M6.5 2.904c-1.9 0-3.479 1.472-3.479 3.31 0 1.84 1.579 3.313 3.479 3.313s3.479-1.473 3.479-3.312c0-1.84-1.579-3.31-3.479-3.31m0 1c1.39 0 2.479 1.044 2.479 2.31S7.89 8.528 6.5 8.528 4.021 7.481 4.021 6.215c0-1.267 1.089-2.31 2.479-2.31"/><path d="M6.5.5c-1.585 0-3.107.6-4.234 1.678A5.65 5.65 0 0 0 .5 6.256c0 .516.075 1.03.22 1.525v.002c.168.607.443 1.181.813 1.697l.014.018 4.56 5.81a.5.5 0 0 0 .786 0l4.56-5.81.014-.018a5.4 5.4 0 0 0 .814-1.705 5.4 5.4 0 0 0 .219-1.52 5.65 5.65 0 0 0-1.766-4.077A6.13 6.13 0 0 0 6.5.5m0 1c1.332 0 2.607.506 3.543 1.4A4.64 4.64 0 0 1 11.5 6.256c0 .42-.06.839-.18 1.244l-.002.01c-.135.493-.358.96-.66 1.383L6.5 14.19 2.342 8.893a4.4 4.4 0 0 1-.66-1.383L1.68 7.5a4.4 4.4 0 0 1-.18-1.244C1.5 5 2.021 3.795 2.957 2.9A5.13 5.13 0 0 1 6.5 1.5"/></g></svg>