<svg width="17" height="16" viewBox="0 0 17 16" version="1.1" xmlns="http://www.w3.org/2000/svg" xmlns:svg="http://www.w3.org/2000/svg" fill="black"><g><path d="M3.844-.016A1.5 1.5 0 0 0 2.748.46l-.988.988v.002a4.94 4.94 0 0 0-.87 5.785l.003.002q.468.879 1.025 1.705a19 19 0 0 0 2.51 3.01 19.4 19.4 0 0 0 4.67 3.49l.004.002a4.94 4.94 0 0 0 5.785-.878l.99-.99a1.5 1.5 0 0 0 0-2.177l-2.088-2.09a1.506 1.506 0 0 0-1.693-.35c-.189.083-.358.2-.498.35l-.801.811-.008.008a.495.495 0 0 1-.664.055l-.002-.002a19.5 19.5 0 0 1-2.125-1.842l-.004-.002a17 17 0 0 1-1.846-2.149l-.002-.001a.5.5 0 0 1 .061-.66l.012-.014.8-.809-.011.01a1.5 1.5 0 0 0 .346-1.678v-.002a1.5 1.5 0 0 0-.346-.494L4.938.46a1.5 1.5 0 0 0-1.094-.475m0 1a.5.5 0 0 1 .365.159l.01.011 2.09 2.1.01.01a.496.496 0 0 1 0 .724L6.306 4l-.787.797q-.002.001-.002.004c-.265.25-.43.588-.463.951v.002c-.033.365.068.728.285 1.023a18.3 18.3 0 0 0 1.953 2.27q1.045 1.047 2.228 1.933a1.5 1.5 0 0 0 1.995-.166l.802-.812.01-.01a.5.5 0 0 1 .73 0l.012.012 2.11 2.111.01.008a.5.5 0 0 1 .115.56.5.5 0 0 1-.116.165l-.01.01-1 1a3.94 3.94 0 0 1-4.613.7 18.372 18.372 0 0 1-4.428-3.309l-.005-.007a18 18 0 0 1-2.385-2.86v-.001a18 18 0 0 1-.973-1.613 3.94 3.94 0 0 1 .694-4.614l.998-1 .012-.011a.5.5 0 0 1 .365-.159"/></g></svg>