<svg width="16" height="18" viewBox="0 0 16 18" version="1.1" xmlns="http://www.w3.org/2000/svg" xmlns:svg="http://www.w3.org/2000/svg" fill="black"><g><path d="M11.135.496a3.64 3.64 0 0 0-2.58 1.072L3.842 6.281l-.006.006.014.014-2.323 2.295-.002.002a5.22 5.22 0 0 0 0 7.377h.002a5.22 5.22 0 0 0 7.375 0h.002l6.83-6.83a.5.5 0 0 0 0-.707.5.5 0 0 0-.709 0l-6.828 6.83a4.22 4.22 0 0 1-5.963 0 4.22 4.22 0 0 1 0-5.963l3.48-3.444.003-.002.004-.004-.02-.02 3.563-3.562a2.64 2.64 0 0 1 2.884-.576 2.655 2.655 0 0 1 .855 4.32l-4.726 4.72-2.1 2.097c-.202.2-.473.312-.757.312s-.554-.113-.756-.312a1.08 1.08 0 0 1-.31-.754c0-.283.112-.554.31-.756l.002-.002 6.617-6.629a.5.5 0 0 0 0-.707.5.5 0 0 0-.707 0l-6.62 6.633h-.003a2.08 2.08 0 0 0 0 2.922l.004.004.002.002a2.08 2.08 0 0 0 2.922 0l.002-.002 2.1-2.102 4.732-4.72a3.66 3.66 0 0 0 0-5.155 3.64 3.64 0 0 0-2.58-1.072"/></g></svg>